<svg width="302" height="74" viewBox="0 0 302 74" fill="none" xmlns="http://www.w3.org/2000/svg">
<g filter="url(#filter0_di_14_12)">
<path d="M49.6 63.6C49 64.6 48.0333 65.1 46.7 65.1C45.6333 65.1 44.8333 64.9 44.3 64.5C43.8333 64.1667 43.5 63.6667 43.3 63C43.1 62.3333 43 61.5333 43 60.6C43 59.7333 42.9667 58.7667 42.9 57.7C42.9667 56.3667 43 55.2 43 54.2C43.0667 53.2 43.1 52.3667 43.1 51.7V50.5C38.3 54.5 34.3333 56.6667 31.2 57C29.8 57.1333 28.5667 57.2333 27.5 57.3C26.4333 57.3667 25.5333 57.4333 24.8 57.5C24 57.5667 23.3 57.6333 22.7 57.7H22.8C20.5333 57.7 18.2667 57.2333 16 56.3C13.8 55.3 11.8 53.9667 10 52.3C8.2 50.6333 6.73333 48.7 5.6 46.5C4.53333 44.2333 4 41.8333 4 39.3C4 38.0333 4.13333 36.3667 4.4 34.3C4.73333 32.2333 5.13333 30.1333 5.6 28C6.13333 25.8667 6.7 23.8667 7.3 22C7.9 20.0667 8.46667 18.6 9 17.6C10 15.8 11.7667 13.7333 14.3 11.4C17.6333 9.46666 21.9667 7.3 27.3 4.9C28.6333 4.63333 30.2 4.36666 32 4.1C33.8667 3.76666 36 3.4 38.4 3C42.6 3.33333 45.6 4 47.4 5C49.2667 6 50.2 7.36666 50.2 9.1C50.2 10.8333 49.2333 11.7 47.3 11.7C46.3667 11.7 45.2667 11.5 44 11.1C42.8 10.6333 41.5333 10.3667 40.2 10.3C38.3333 10.2333 36.9333 10.2 36 10.2C35.0667 10.1333 34.5333 10.1 34.4 10.1C30.0667 10.9 26.6 12.1 24 13.7C22.4 13.9667 20.8 14.8 19.2 16.2C17.6 17.5333 16.1667 19.3 14.9 21.5C13.6333 23.7 12.6 26.2333 11.8 29.1C11.0667 31.9 10.7 34.8667 10.7 38C10.7 41.2 11.3333 43.8667 12.6 46C13.9333 48.0667 16.5 49.7333 20.3 51C20.9 51.2 21.7 51.3 22.7 51.3C24.9667 51.3 26.8667 51.2 28.4 51C29.9333 50.7333 31.3 50.3333 32.5 49.8C33.7667 49.2667 34.9333 48.5667 36 47.7C37.1333 46.8333 38.4 45.7333 39.8 44.4C41 43.3333 41.7667 42.8 42.1 42.8C42.3 42.8 42.4333 42.8333 42.5 42.9C42.4333 42.5667 42.4 41.9667 42.4 41.1C42.4 40.7 42.4 40.3 42.4 39.9C42.4 39.5 42.4333 39.0333 42.5 38.5C41.5 37.9 40.1 37.4333 38.3 37.1C36.5667 36.7 34.8667 36.4333 33.2 36.3C31.5333 36.1 30.1 36 28.9 36C27.7667 35.9333 27.2667 35.9 27.4 35.9C26.3333 34.9 25.8 33.8333 25.8 32.7C25.8 31.1 26.5333 30.1667 28 29.9H27.9C27.9 29.7667 28.5333 29.8333 29.8 30.1C31.0667 30.3667 32.8 30.5 35 30.5C35.6667 30.5 36.2 30.4333 36.6 30.3C37.4667 30.3667 38.4667 30.5333 39.6 30.8C40.8 31.0667 41.9333 31.4 43 31.8C44.1333 32.1333 45.1667 32.5333 46.1 33C47.0333 33.4 47.7333 33.7667 48.2 34.1C49.2 34.8333 49.7 36.6333 49.7 39.5C49.7 41.3 49.4333 42.9 48.9 44.3C49.2333 45.5 49.4 47.5667 49.4 50.5C49.4 52.4333 49.4333 53.9 49.5 54.9C49.5667 55.8333 49.5667 56.3333 49.5 56.4C49.3667 56.8 49.3 57.1667 49.3 57.5C49.3 57.9667 49.3667 58.7333 49.5 59.8C49.7 60.9333 49.8 61.7667 49.8 62.3C49.8 62.7667 49.7333 63.2 49.6 63.6ZM107.607 55.6C107.607 56.4 107.24 57.1333 106.507 57.8C105.774 58.4 105.04 58.7 104.307 58.7C104.107 58.7 103.907 58.7333 103.707 58.8C103.574 58.9333 103.34 58.8667 103.007 58.6C102.674 58.3333 102.14 57.8 101.407 57C100.674 56.1333 99.6737 54.7667 98.407 52.9L93.207 45.4C93.0737 45 92.707 44.3333 92.107 43.4C91.507 42.4667 90.8404 41.4667 90.107 40.4C89.4404 39.2667 88.7737 38.2333 88.107 37.3C87.507 36.3 87.1737 35.6 87.107 35.2C86.8404 35.2 86.307 35.2667 85.507 35.4C84.707 35.4667 83.8404 35.5667 82.907 35.7C81.9737 35.7667 81.0404 35.8667 80.107 36C79.2404 36.0667 78.607 36.1 78.207 36.1C77.8737 36.1 77.5737 36.1 77.307 36.1C77.0404 36.1 76.7737 36.0667 76.507 36C76.2404 39.6667 76.0404 42.4 75.907 44.2C75.7737 46 75.707 46.8333 75.707 46.7C75.7737 47.2333 75.807 47.8 75.807 48.4C75.807 48.9333 75.807 49.5 75.807 50.1C75.807 51.8333 75.707 53.6 75.507 55.4C75.3737 57.2 75.1404 59.0667 74.807 61C74.2737 61.8 73.4737 62.2 72.407 62.2C71.407 62.2 70.507 61.9 69.707 61.3C68.9737 60.7667 68.607 59.8333 68.607 58.5C68.607 58.0333 68.607 57.4 68.607 56.6C68.6737 55.7333 68.7404 54.9 68.807 54.1C68.8737 53.3 68.907 52.5667 68.907 51.9C68.9737 51.2333 69.007 50.7667 69.007 50.5V49.9C69.0737 49.3667 69.1737 47.2333 69.307 43.5C69.507 39.7667 69.7404 34.0667 70.007 26.4C70.007 25.9333 70.0737 25.2 70.207 24.2C70.407 23.2 70.607 22.1333 70.807 21C71.007 19.8 71.1737 18.6333 71.307 17.5C71.4404 16.3667 71.507 15.4 71.507 14.6C71.507 14.1333 71.4737 13.7 71.407 13.3C71.407 12.8333 71.3737 12.3667 71.307 11.9C71.307 11.9 71.307 11.6333 71.307 11.1C71.307 10.5 71.3404 9.8 71.407 9C71.5404 8.13333 71.707 7.26666 71.907 6.4C72.107 5.46666 72.3737 4.73333 72.707 4.2C73.107 4.06666 73.507 3.96666 73.907 3.9C74.307 3.83333 74.7737 3.79999 75.307 3.79999C76.507 3.79999 77.907 4.06666 79.507 4.6C80.907 4.46666 82.1404 4.4 83.207 4.4C84.3404 4.4 85.307 4.4 86.107 4.4C86.7737 4.4 87.3737 4.43333 87.907 4.5C88.4404 4.5 88.9737 4.53333 89.507 4.6C90.107 4.66666 90.7404 4.8 91.407 5C92.0737 5.13333 92.8737 5.33333 93.807 5.6L98.207 8.4C100.54 10.1333 102.14 11.9667 103.007 13.9C103.874 15.7667 104.307 18.1667 104.307 21.1C104.174 22.2333 104.04 23.1667 103.907 23.9C103.84 24.6333 103.607 25.3 103.207 25.9C102.874 26.5 102.34 27.1333 101.607 27.8C100.94 28.4667 100.007 29.3 98.807 30.3C97.7404 31.2333 96.7737 31.9667 95.907 32.5C95.107 32.9667 94.407 33.3 93.807 33.5C93.8737 33.8333 94.207 34.5 94.807 35.5C95.4737 36.5 96.1737 37.6 96.907 38.8C97.6404 39.9333 98.307 41.0333 98.907 42.1C99.507 43.1 99.8737 43.8 100.007 44.2C101.14 44.6667 102.674 46.5667 104.607 49.9L107.607 55.6ZM97.307 22.2C97.3737 21.7333 97.407 21.3333 97.407 21C97.4737 20.6667 97.507 20.3333 97.507 20C97.507 19.6 97.407 19.0333 97.207 18.3C97.0737 17.5667 96.707 16.8 96.107 16C95.507 15.1333 94.6404 14.2333 93.507 13.3C92.4404 12.3667 90.9737 11.5 89.107 10.7C87.5737 10.1 86.2404 9.8 85.107 9.8C84.707 9.8 84.2404 9.86666 83.707 10C83.1737 10.0667 82.5737 10.1667 81.907 10.3L78.407 10.9C78.407 12.2333 78.3737 13.2 78.307 13.8C78.307 14.3333 78.2404 15.1 78.107 16.1C78.0404 17.1 77.907 18.5667 77.707 20.5C77.507 22.4333 77.2737 25.4333 77.007 29.5C77.807 29.7667 78.807 29.9 80.007 29.9C81.607 29.9 83.3404 29.7 85.207 29.3C87.0737 28.8333 88.8404 28.2667 90.507 27.6C92.1737 26.8667 93.607 26.0333 94.807 25.1C96.0737 24.1667 96.907 23.2 97.307 22.2ZM155.377 53.5C157.043 54.1667 157.877 55.3667 157.877 57.1C157.877 59.5667 155.51 60.8 150.777 60.8C150.11 60.8 149.377 60.7667 148.577 60.7C147.777 60.7 147.077 60.7 146.477 60.7C145.61 60.7 144.843 60.7 144.177 60.7C143.577 60.7 143.077 60.7333 142.677 60.8C142.543 60.7333 141.677 60.6333 140.077 60.5C138.477 60.4333 136.143 60.2667 133.077 60C131.477 60.1333 130.21 60.2333 129.277 60.3C128.41 60.3667 127.843 60.4 127.577 60.4C125.11 60.4 123.343 60 122.277 59.2C121.943 56.8667 121.677 54.6667 121.477 52.6C121.277 50.4667 121.177 48.4333 121.177 46.5C121.177 43.1 121.31 40.0667 121.577 37.4C121.91 34.7333 122.077 32.5333 122.077 30.8C122.077 28.5333 121.943 27 121.677 26.2L122.177 15.7C122.71 10.4333 123.477 6.86666 124.477 5C124.743 4.73333 125.577 4.43333 126.977 4.1C128.443 3.76666 129.977 3.46666 131.577 3.2C133.177 2.86666 134.577 2.6 135.777 2.39999C136.977 2.13333 137.443 2 137.177 2C137.577 1.86666 138.443 1.73333 139.777 1.6C141.11 1.46666 142.51 1.33333 143.977 1.2C145.443 1.06666 146.743 0.966662 147.877 0.899996C149.077 0.83333 149.643 0.799997 149.577 0.799997H149.877C150.41 0.799997 150.91 1.16666 151.377 1.9C151.91 2.56667 152.177 3.36667 152.177 4.3C152.177 4.9 152.143 5.43333 152.077 5.9C152.01 6.3 151.777 6.66666 151.377 6.99999C150.977 7.33333 150.31 7.6 149.377 7.8C148.443 7.93333 147.11 8.03333 145.377 8.1C142.377 8.23333 140.343 8.46667 139.277 8.8H138.677C136.61 8.8 134.11 9.26667 131.177 10.2C130.843 10.5333 130.543 11.1667 130.277 12.1C130.01 13.0333 129.777 14.0667 129.577 15.2C129.443 16.3333 129.31 17.4667 129.177 18.6C129.11 19.7333 129.077 20.6333 129.077 21.3C129.077 23.0333 129.143 24.3667 129.277 25.3C129.41 26.2333 129.443 26.7 129.377 26.7C131.51 26.6333 133.41 26.4333 135.077 26.1C136.81 25.7667 138.343 25.6 139.677 25.6C140.277 25.6 140.977 25.6333 141.777 25.7C142.577 25.7 143.41 25.7 144.277 25.7C145.143 25.7 145.91 25.7333 146.577 25.8C147.31 25.8 147.877 25.8 148.277 25.8C148.943 25.8 149.41 26.1 149.677 26.7C150.01 27.3 150.177 28.0333 150.177 28.9C150.177 30.3667 149.643 31.3333 148.577 31.8C147.51 32.2 145.61 32.4 142.877 32.4C139.677 32.4 137.677 32.5 136.877 32.7C136.543 32.7 136.143 32.7 135.677 32.7C135.277 32.6333 134.843 32.6 134.377 32.6C133.643 32.6 132.843 32.6333 131.977 32.7C131.177 32.7 130.31 32.7333 129.377 32.8C129.177 33.0667 129.01 33.7 128.877 34.7C128.743 35.6333 128.643 36.6333 128.577 37.7C128.51 38.7667 128.477 39.7333 128.477 40.6C128.477 41.4 128.477 41.8 128.477 41.8V43.9C128.477 46.2333 128.377 49.2333 128.177 52.9C128.643 53.0333 129.577 53.1667 130.977 53.3C132.443 53.4333 133.977 53.5667 135.577 53.7C137.177 53.7667 138.677 53.8667 140.077 54C141.543 54.0667 142.477 54.1333 142.877 54.2C142.943 54.2 143.443 54.1667 144.377 54.1C145.31 54.0333 146.643 53.9333 148.377 53.8C150.843 53.6 152.777 53.5 154.177 53.5H155.377ZM204.693 53.5C206.36 54.1667 207.193 55.3667 207.193 57.1C207.193 59.5667 204.826 60.8 200.093 60.8C199.426 60.8 198.693 60.7667 197.893 60.7C197.093 60.7 196.393 60.7 195.793 60.7C194.926 60.7 194.16 60.7 193.493 60.7C192.893 60.7 192.393 60.7333 191.993 60.8C191.86 60.7333 190.993 60.6333 189.393 60.5C187.793 60.4333 185.46 60.2667 182.393 60C180.793 60.1333 179.526 60.2333 178.593 60.3C177.726 60.3667 177.16 60.4 176.893 60.4C174.426 60.4 172.66 60 171.593 59.2C171.26 56.8667 170.993 54.6667 170.793 52.6C170.593 50.4667 170.493 48.4333 170.493 46.5C170.493 43.1 170.626 40.0667 170.893 37.4C171.226 34.7333 171.393 32.5333 171.393 30.8C171.393 28.5333 171.26 27 170.993 26.2L171.493 15.7C172.026 10.4333 172.793 6.86666 173.793 5C174.06 4.73333 174.893 4.43333 176.293 4.1C177.76 3.76666 179.293 3.46666 180.893 3.2C182.493 2.86666 183.893 2.6 185.093 2.39999C186.293 2.13333 186.76 2 186.493 2C186.893 1.86666 187.76 1.73333 189.093 1.6C190.426 1.46666 191.826 1.33333 193.293 1.2C194.76 1.06666 196.06 0.966662 197.193 0.899996C198.393 0.83333 198.96 0.799997 198.893 0.799997H199.193C199.726 0.799997 200.226 1.16666 200.693 1.9C201.226 2.56667 201.493 3.36667 201.493 4.3C201.493 4.9 201.46 5.43333 201.393 5.9C201.326 6.3 201.093 6.66666 200.693 6.99999C200.293 7.33333 199.626 7.6 198.693 7.8C197.76 7.93333 196.426 8.03333 194.693 8.1C191.693 8.23333 189.66 8.46667 188.593 8.8H187.993C185.926 8.8 183.426 9.26667 180.493 10.2C180.16 10.5333 179.86 11.1667 179.593 12.1C179.326 13.0333 179.093 14.0667 178.893 15.2C178.76 16.3333 178.626 17.4667 178.493 18.6C178.426 19.7333 178.393 20.6333 178.393 21.3C178.393 23.0333 178.46 24.3667 178.593 25.3C178.726 26.2333 178.76 26.7 178.693 26.7C180.826 26.6333 182.726 26.4333 184.393 26.1C186.126 25.7667 187.66 25.6 188.993 25.6C189.593 25.6 190.293 25.6333 191.093 25.7C191.893 25.7 192.726 25.7 193.593 25.7C194.46 25.7 195.226 25.7333 195.893 25.8C196.626 25.8 197.193 25.8 197.593 25.8C198.26 25.8 198.726 26.1 198.993 26.7C199.326 27.3 199.493 28.0333 199.493 28.9C199.493 30.3667 198.96 31.3333 197.893 31.8C196.826 32.2 194.926 32.4 192.193 32.4C188.993 32.4 186.993 32.5 186.193 32.7C185.86 32.7 185.46 32.7 184.993 32.7C184.593 32.6333 184.16 32.6 183.693 32.6C182.96 32.6 182.16 32.6333 181.293 32.7C180.493 32.7 179.626 32.7333 178.693 32.8C178.493 33.0667 178.326 33.7 178.193 34.7C178.06 35.6333 177.96 36.6333 177.893 37.7C177.826 38.7667 177.793 39.7333 177.793 40.6C177.793 41.4 177.793 41.8 177.793 41.8V43.9C177.793 46.2333 177.693 49.2333 177.493 52.9C177.96 53.0333 178.893 53.1667 180.293 53.3C181.76 53.4333 183.293 53.5667 184.893 53.7C186.493 53.7667 187.993 53.8667 189.393 54C190.86 54.0667 191.793 54.1333 192.193 54.2C192.26 54.2 192.76 54.1667 193.693 54.1C194.626 54.0333 195.96 53.9333 197.693 53.8C200.16 53.6 202.093 53.5 203.493 53.5H204.693ZM261.709 36V37.4C261.709 39.3333 261.609 42.4333 261.409 46.7C261.409 46.9667 261.409 47.2333 261.409 47.5C261.476 47.7 261.509 47.9 261.509 48.1C261.509 48.7 261.443 49.4333 261.309 50.3C261.176 51.1 260.976 51.8667 260.709 52.6C260.443 53.3333 260.076 53.9667 259.609 54.5C259.209 55.0333 258.709 55.3 258.109 55.3C256.909 55.3 255.843 54.8333 254.909 53.9C254.909 52.8333 252.243 49.1333 246.909 42.8L244.809 38.8C244.409 38.0667 243.909 37.3333 243.309 36.6C242.709 35.8 242.109 35.0333 241.509 34.3C241.176 34.0333 240.643 33.4 239.909 32.4C239.243 31.4 238.543 30.3333 237.809 29.2C237.143 28.0667 236.509 27.0333 235.909 26.1C235.376 25.1667 235.109 24.7 235.109 24.7C233.509 23.1 231.076 19.9 227.809 15.1C227.809 16.7 227.743 18.1667 227.609 19.5C227.543 20.8333 227.443 22.3667 227.309 24.1C227.176 25.8333 226.976 27.9 226.709 30.3C226.443 32.7 226.176 35.7667 225.909 39.5V40C225.909 40.5333 225.776 41.3667 225.509 42.5C225.309 43.6333 225.043 44.8 224.709 46C224.443 47.1333 224.176 48.1667 223.909 49.1C223.643 49.9667 223.509 50.4667 223.509 50.6C222.843 52.2667 221.643 53.1 219.909 53.1C218.309 53.1 217.376 52.1 217.109 50.1L219.309 36.4C219.443 33.8 219.843 29.6667 220.509 24C220.643 23.4 220.743 22.3333 220.809 20.8C220.943 19.2 221.076 17.5333 221.209 15.8C221.409 14.0667 221.609 12.4 221.809 10.8C222.009 9.2 222.243 8.03333 222.509 7.3C223.709 5.83333 225.376 5.1 227.509 5.1C228.376 5.43333 229.576 6.73333 231.109 9L234.409 14C235.343 15.1333 236.609 16.6667 238.209 18.6C239.809 20.5333 241.676 22.9 243.809 25.7C246.209 28.9 248.243 31.8667 249.909 34.6C251.643 37.2667 253.143 39.6667 254.409 41.8C254.609 41.2 254.776 40.1333 254.909 38.6C255.043 37.0667 255.109 35.2 255.109 33C255.109 32.0667 255.076 31.2667 255.009 30.6C255.009 29.9333 254.976 29.4333 254.909 29.1C254.976 29.0333 255.009 28.7667 255.009 28.3C255.009 28.1 254.943 27.6 254.809 26.8C254.743 25.9333 254.609 25 254.409 24C254.276 23 254.143 22.0667 254.009 21.2C253.943 20.3333 253.909 19.7333 253.909 19.4C253.909 19 253.976 18.6 254.109 18.2C253.976 16.4667 253.809 14.5667 253.609 12.5C253.409 10.3667 253.143 8.03333 252.809 5.5C253.276 2.9 254.376 1.6 256.109 1.6C257.709 1.6 258.909 2.43333 259.709 4.1C259.776 6.1 259.909 8.1 260.109 10.1C260.309 12.0333 260.509 14.2 260.709 16.6C260.909 19 261.109 21.7667 261.309 24.9C261.509 28.0333 261.643 31.7333 261.709 36ZM294.052 57C293.052 57.0667 292.185 57.1333 291.452 57.2C290.718 57.2667 289.985 57.3333 289.252 57.4C288.585 57.4667 287.818 57.5667 286.952 57.7C286.152 57.7667 285.118 57.8667 283.852 58C283.452 57.8667 283.152 57.8 282.952 57.8C282.685 57.8 282.285 57.8667 281.752 58C281.218 58.2 280.752 58.3 280.352 58.3C278.485 58.3 277.552 57.4 277.552 55.6C277.552 54.8 277.718 54.2 278.052 53.8C278.452 53.3333 278.952 52.9667 279.552 52.7C280.152 52.3667 280.885 52.1 281.752 51.9C282.618 51.7 283.552 51.4667 284.552 51.2V50.1C284.552 47.9667 284.752 45.2 285.152 41.8C284.952 41.1333 284.852 40.2667 284.852 39.2C284.852 36.8 284.918 34.8667 285.052 33.4C285.252 31.8667 285.352 31.0667 285.352 31C285.352 29.8 285.218 28.9667 284.952 28.5V25.9C284.952 24.6333 284.885 23.3 284.752 21.9C284.685 20.4333 284.585 19.0667 284.452 17.8C284.385 16.5333 284.318 15.4333 284.252 14.5C284.185 13.5 284.152 12.8 284.152 12.4V11.9C282.885 11.9 281.352 11.8 279.552 11.6C278.618 10.2667 278.152 9.13333 278.152 8.2C278.152 7.73333 278.218 7.33333 278.352 6.99999C278.485 6.6 278.785 6.3 279.252 6.09999C279.785 5.83333 280.485 5.66666 281.352 5.6C282.285 5.46666 283.552 5.4 285.152 5.4C286.285 5.4 287.285 5.46666 288.152 5.6C289.085 5.73333 289.852 5.9 290.452 6.09999C291.985 6.09999 293.218 6.13333 294.152 6.2C295.152 6.26667 295.918 6.4 296.452 6.6C296.985 6.73333 297.318 6.96666 297.452 7.3C297.652 7.63333 297.752 8.06666 297.752 8.6C297.752 9.86666 297.085 11.0667 295.752 12.2C295.418 12.2 295.052 12.2 294.652 12.2C294.318 12.1333 293.952 12.1 293.552 12.1C293.152 12.1 292.718 12.1333 292.252 12.2C291.785 12.2 291.285 12.2 290.752 12.2C290.952 13.0667 291.085 14 291.152 15C291.218 16 291.285 17 291.352 18C291.418 18.9333 291.452 19.8333 291.452 20.7C291.518 21.5 291.618 22.1667 291.752 22.7L292.052 32.4C291.985 34 291.952 35.4333 291.952 36.7C291.952 37.9 291.952 38.9333 291.952 39.8C291.952 41.6667 291.985 42.7 292.052 42.9L291.452 51C291.852 51 292.385 51.0333 293.052 51.1C293.718 51.1 294.352 51.2 294.952 51.4C295.552 51.6 296.085 51.9333 296.552 52.4C297.018 52.8 297.252 53.4 297.252 54.2C297.252 54.9333 296.985 55.5667 296.452 56.1C295.985 56.6333 295.185 56.9333 294.052 57Z" fill="white"/>
</g>
<defs>
<filter id="filter0_di_14_12" x="0" y="0.799995" width="301.752" height="72.3" filterUnits="userSpaceOnUse" color-interpolation-filters="sRGB">
<feFlood flood-opacity="0" result="BackgroundImageFix"/>
<feColorMatrix in="SourceAlpha" type="matrix" values="0 0 0 0 0 0 0 0 0 0 0 0 0 0 0 0 0 0 127 0" result="hardAlpha"/>
<feOffset dy="4"/>
<feGaussianBlur stdDeviation="2"/>
<feComposite in2="hardAlpha" operator="out"/>
<feColorMatrix type="matrix" values="0 0 0 0 0 0 0 0 0 0 0 0 0 0 0 0 0 0 0.25 0"/>
<feBlend mode="normal" in2="BackgroundImageFix" result="effect1_dropShadow_14_12"/>
<feBlend mode="normal" in="SourceGraphic" in2="effect1_dropShadow_14_12" result="shape"/>
<feColorMatrix in="SourceAlpha" type="matrix" values="0 0 0 0 0 0 0 0 0 0 0 0 0 0 0 0 0 0 127 0" result="hardAlpha"/>
<feOffset dy="4"/>
<feGaussianBlur stdDeviation="2"/>
<feComposite in2="hardAlpha" operator="arithmetic" k2="-1" k3="1"/>
<feColorMatrix type="matrix" values="0 0 0 0 0 0 0 0 0 0 0 0 0 0 0 0 0 0 0.25 0"/>
<feBlend mode="normal" in2="shape" result="effect2_innerShadow_14_12"/>
</filter>
</defs>
</svg>
