<svg width="27" height="34" viewBox="0 0 27 34" fill="none" xmlns="http://www.w3.org/2000/svg">
<g filter="url(#filter0_d_83_93)">
<path d="M11.836 0.295998C13.972 0.295998 15.76 0.499999 17.2 0.907999C18.664 1.316 19.756 1.988 20.476 2.924C21.22 3.86 21.592 5.108 21.592 6.668C21.592 7.676 21.4 8.576 21.016 9.368C20.656 10.136 20.104 10.784 19.36 11.312C18.64 11.816 17.752 12.164 16.696 12.356V12.536C17.776 12.704 18.748 13.016 19.612 13.472C20.5 13.928 21.196 14.576 21.7 15.416C22.204 16.256 22.456 17.348 22.456 18.692C22.456 20.252 22.096 21.584 21.376 22.688C20.656 23.768 19.624 24.596 18.28 25.172C16.96 25.724 15.376 26 13.528 26H4.492V0.295998H11.836ZM12.484 11.24C14.692 11.24 16.204 10.892 17.02 10.196C17.836 9.476 18.244 8.42 18.244 7.028C18.244 5.612 17.74 4.604 16.732 4.004C15.748 3.38 14.164 3.068 11.98 3.068H7.732V11.24H12.484ZM7.732 13.94V23.264H12.916C15.196 23.264 16.78 22.82 17.668 21.932C18.556 21.044 19 19.88 19 18.44C19 17.528 18.796 16.736 18.388 16.064C18.004 15.392 17.344 14.876 16.408 14.516C15.496 14.132 14.248 13.94 12.664 13.94H7.732Z" fill="#F4E2BC"/>
</g>
<defs>
<filter id="filter0_d_83_93" x="0.491997" y="0.295898" width="25.964" height="33.7041" filterUnits="userSpaceOnUse" color-interpolation-filters="sRGB">
<feFlood flood-opacity="0" result="BackgroundImageFix"/>
<feColorMatrix in="SourceAlpha" type="matrix" values="0 0 0 0 0 0 0 0 0 0 0 0 0 0 0 0 0 0 127 0" result="hardAlpha"/>
<feOffset dy="4"/>
<feGaussianBlur stdDeviation="2"/>
<feComposite in2="hardAlpha" operator="out"/>
<feColorMatrix type="matrix" values="0 0 0 0 0 0 0 0 0 0 0 0 0 0 0 0 0 0 0.25 0"/>
<feBlend mode="normal" in2="BackgroundImageFix" result="effect1_dropShadow_83_93"/>
<feBlend mode="normal" in="SourceGraphic" in2="effect1_dropShadow_83_93" result="shape"/>
</filter>
</defs>
</svg>
