<svg width="27" height="36" viewBox="0 0 27 36" fill="none" xmlns="http://www.w3.org/2000/svg">
<g filter="url(#filter0_d_83_91)">
<path d="M21.684 7.308C21.684 9.06 21.132 10.452 20.028 11.484C18.924 12.492 17.448 13.14 15.6 13.428V13.572C17.76 13.86 19.404 14.532 20.532 15.588C21.66 16.644 22.224 18.024 22.224 19.728C22.224 21.24 21.84 22.572 21.072 23.724C20.304 24.852 19.152 25.74 17.616 26.388C16.08 27.036 14.16 27.36 11.856 27.36C10.464 27.36 9.132 27.252 7.86 27.036C6.612 26.844 5.448 26.484 4.368 25.956V23.004C5.112 23.364 5.904 23.676 6.744 23.94C7.608 24.18 8.472 24.372 9.336 24.516C10.2 24.636 11.028 24.696 11.82 24.696C14.124 24.696 15.864 24.264 17.04 23.4C18.24 22.536 18.84 21.312 18.84 19.728C18.84 18.096 18.144 16.908 16.752 16.164C15.36 15.42 13.416 15.048 10.92 15.048H7.248V12.348H10.74C12.444 12.348 13.848 12.156 14.952 11.772C16.08 11.388 16.92 10.848 17.472 10.152C18.048 9.432 18.336 8.592 18.336 7.632C18.336 6.336 17.856 5.34 16.896 4.644C15.936 3.948 14.688 3.6 13.152 3.6C11.544 3.6 10.2 3.804 9.12 4.212C8.064 4.62 7.032 5.148 6.024 5.796L4.476 3.6C5.148 3.096 5.916 2.652 6.78 2.268C7.668 1.86 8.652 1.536 9.732 1.296C10.812 1.056 11.964 0.935999 13.188 0.935999C15.036 0.935999 16.584 1.212 17.832 1.764C19.104 2.316 20.064 3.072 20.712 4.032C21.36 4.968 21.684 6.06 21.684 7.308Z" fill="#F4E2BC"/>
</g>
<defs>
<filter id="filter0_d_83_91" x="0.367996" y="0.936035" width="25.856" height="34.4238" filterUnits="userSpaceOnUse" color-interpolation-filters="sRGB">
<feFlood flood-opacity="0" result="BackgroundImageFix"/>
<feColorMatrix in="SourceAlpha" type="matrix" values="0 0 0 0 0 0 0 0 0 0 0 0 0 0 0 0 0 0 127 0" result="hardAlpha"/>
<feOffset dy="4"/>
<feGaussianBlur stdDeviation="2"/>
<feComposite in2="hardAlpha" operator="out"/>
<feColorMatrix type="matrix" values="0 0 0 0 0 0 0 0 0 0 0 0 0 0 0 0 0 0 0.25 0"/>
<feBlend mode="normal" in2="BackgroundImageFix" result="effect1_dropShadow_83_91"/>
<feBlend mode="normal" in="SourceGraphic" in2="effect1_dropShadow_83_91" result="shape"/>
</filter>
</defs>
</svg>
