<svg width="333" height="36" viewBox="0 0 333 36" fill="none" xmlns="http://www.w3.org/2000/svg">
<g filter="url(#filter0_d_68_60)">
<path d="M4.52 23V0.499998H8.48V19.67L7.28 18.92L22.34 0.499998H26.63L8.06 23H4.52ZM15.23 11.69L18.02 8.96L26.96 23H22.43L15.23 11.69ZM43.787 23L43.127 16.7L43.907 14.51L43.127 12.35L43.787 6.02H47.807L46.907 14.51L47.807 23H43.787ZM44.987 14.51C44.607 16.29 43.977 17.85 43.097 19.19C42.217 20.53 41.127 21.57 39.827 22.31C38.547 23.05 37.117 23.42 35.537 23.42C33.877 23.42 32.407 23.05 31.127 22.31C29.847 21.55 28.847 20.5 28.127 19.16C27.407 17.82 27.047 16.27 27.047 14.51C27.047 12.73 27.407 11.18 28.127 9.86C28.847 8.52 29.847 7.48 31.127 6.74C32.407 5.98 33.877 5.6 35.537 5.6C37.117 5.6 38.547 5.97 39.827 6.71C41.127 7.45 42.217 8.49 43.097 9.83C43.997 11.15 44.627 12.71 44.987 14.51ZM31.007 14.51C31.007 15.65 31.237 16.66 31.697 17.54C32.177 18.4 32.827 19.08 33.647 19.58C34.467 20.06 35.407 20.3 36.467 20.3C37.547 20.3 38.547 20.06 39.467 19.58C40.387 19.08 41.197 18.4 41.897 17.54C42.617 16.66 43.187 15.65 43.607 14.51C43.187 13.37 42.617 12.37 41.897 11.51C41.197 10.63 40.387 9.95 39.467 9.47C38.547 8.97 37.547 8.72 36.467 8.72C35.407 8.72 34.467 8.97 33.647 9.47C32.827 9.95 32.177 10.63 31.697 11.51C31.237 12.37 31.007 13.37 31.007 14.51ZM56.9302 7.37H60.8302V23H56.9302V7.37ZM49.8802 6.02H67.8802V9.08H49.8802V6.02ZM85.4764 23L84.8164 16.7L85.5964 14.51L84.8164 12.35L85.4764 6.02H89.4964L88.5964 14.51L89.4964 23H85.4764ZM86.6764 14.51C86.2964 16.29 85.6664 17.85 84.7864 19.19C83.9064 20.53 82.8164 21.57 81.5164 22.31C80.2364 23.05 78.8064 23.42 77.2264 23.42C75.5664 23.42 74.0964 23.05 72.8164 22.31C71.5364 21.55 70.5364 20.5 69.8164 19.16C69.0964 17.82 68.7364 16.27 68.7364 14.51C68.7364 12.73 69.0964 11.18 69.8164 9.86C70.5364 8.52 71.5364 7.48 72.8164 6.74C74.0964 5.98 75.5664 5.6 77.2264 5.6C78.8064 5.6 80.2364 5.97 81.5164 6.71C82.8164 7.45 83.9064 8.49 84.7864 9.83C85.6864 11.15 86.3164 12.71 86.6764 14.51ZM72.6964 14.51C72.6964 15.65 72.9264 16.66 73.3864 17.54C73.8664 18.4 74.5164 19.08 75.3364 19.58C76.1564 20.06 77.0964 20.3 78.1564 20.3C79.2364 20.3 80.2364 20.06 81.1564 19.58C82.0764 19.08 82.8864 18.4 83.5864 17.54C84.3064 16.66 84.8764 15.65 85.2964 14.51C84.8764 13.37 84.3064 12.37 83.5864 11.51C82.8864 10.63 82.0764 9.95 81.1564 9.47C80.2364 8.97 79.2364 8.72 78.1564 8.72C77.0964 8.72 76.1564 8.97 75.3364 9.47C74.5164 9.95 73.8664 10.63 73.3864 11.51C72.9264 12.37 72.6964 13.37 72.6964 14.51ZM96.2197 6.02H112.93V23H109.03V7.22L110.83 9.02H98.1697L99.8497 7.64C99.9497 8.88 100.03 10.06 100.09 11.18C100.17 12.28 100.21 13.27 100.21 14.15C100.21 17.35 99.7597 19.68 98.8597 21.14C97.9597 22.6 96.5097 23.33 94.5097 23.33C93.9697 23.33 93.4497 23.27 92.9497 23.15C92.4497 23.03 91.9697 22.84 91.5097 22.58V19.67C91.8697 19.81 92.2197 19.92 92.5597 20C92.9197 20.08 93.2497 20.12 93.5497 20.12C94.6497 20.12 95.4397 19.61 95.9197 18.59C96.4197 17.57 96.6697 15.91 96.6697 13.61C96.6697 12.61 96.6297 11.47 96.5497 10.19C96.4897 8.91 96.3797 7.52 96.2197 6.02ZM126.458 23.42C124.398 23.42 122.588 23.05 121.028 22.31C119.488 21.55 118.278 20.5 117.398 19.16C116.538 17.82 116.108 16.27 116.108 14.51C116.108 12.73 116.538 11.18 117.398 9.86C118.278 8.52 119.488 7.48 121.028 6.74C122.588 5.98 124.398 5.6 126.458 5.6C128.518 5.6 130.318 5.98 131.858 6.74C133.418 7.48 134.628 8.52 135.488 9.86C136.368 11.18 136.808 12.73 136.808 14.51C136.808 16.27 136.368 17.82 135.488 19.16C134.628 20.5 133.418 21.55 131.858 22.31C130.318 23.05 128.518 23.42 126.458 23.42ZM126.458 20.36C127.778 20.36 128.908 20.12 129.848 19.64C130.808 19.16 131.548 18.49 132.068 17.63C132.588 16.75 132.848 15.71 132.848 14.51C132.848 13.31 132.588 12.28 132.068 11.42C131.548 10.54 130.808 9.86 129.848 9.38C128.908 8.9 127.778 8.66 126.458 8.66C125.158 8.66 124.028 8.9 123.068 9.38C122.108 9.86 121.368 10.54 120.848 11.42C120.328 12.28 120.068 13.31 120.068 14.51C120.068 15.71 120.328 16.75 120.848 17.63C121.368 18.49 122.108 19.16 123.068 19.64C124.028 20.12 125.158 20.36 126.458 20.36ZM153.388 6.02V9.08H142.078L143.878 7.28V23H139.978V6.02H153.388ZM167.409 7.37H171.309V23H167.409V7.37ZM160.359 6.02H178.359V9.08H160.359V6.02ZM189.476 23.42C187.416 23.42 185.606 23.05 184.046 22.31C182.506 21.55 181.296 20.5 180.416 19.16C179.556 17.82 179.126 16.27 179.126 14.51C179.126 12.73 179.556 11.18 180.416 9.86C181.296 8.52 182.506 7.48 184.046 6.74C185.606 5.98 187.416 5.6 189.476 5.6C191.536 5.6 193.336 5.98 194.876 6.74C196.436 7.48 197.646 8.52 198.506 9.86C199.386 11.18 199.826 12.73 199.826 14.51C199.826 16.27 199.386 17.82 198.506 19.16C197.646 20.5 196.436 21.55 194.876 22.31C193.336 23.05 191.536 23.42 189.476 23.42ZM189.476 20.36C190.796 20.36 191.926 20.12 192.866 19.64C193.826 19.16 194.566 18.49 195.086 17.63C195.606 16.75 195.866 15.71 195.866 14.51C195.866 13.31 195.606 12.28 195.086 11.42C194.566 10.54 193.826 9.86 192.866 9.38C191.926 8.9 190.796 8.66 189.476 8.66C188.176 8.66 187.046 8.9 186.086 9.38C185.126 9.86 184.386 10.54 183.866 11.42C183.346 12.28 183.086 13.31 183.086 14.51C183.086 15.71 183.346 16.75 183.866 17.63C184.386 18.49 185.126 19.16 186.086 19.64C187.046 20.12 188.176 20.36 189.476 20.36ZM202.606 23L203.476 14.51L202.606 6.02H214.906C216.546 6.02 217.826 6.4 218.746 7.16C219.686 7.92 220.156 8.97 220.156 10.31C220.156 11.55 219.686 12.55 218.746 13.31C217.826 14.05 216.536 14.49 214.876 14.63L215.176 13.91C217.136 13.95 218.636 14.35 219.676 15.11C220.716 15.87 221.236 16.94 221.236 18.32C221.236 19.78 220.706 20.93 219.646 21.77C218.606 22.59 217.156 23 215.296 23H202.606ZM206.386 22.04L204.886 20.3H214.306C215.366 20.3 216.126 20.1 216.586 19.7C217.066 19.28 217.306 18.7 217.306 17.96C217.306 17.3 217.036 16.75 216.496 16.31C215.976 15.87 215.096 15.65 213.856 15.65H205.726V13.13H213.286C214.306 13.13 215.046 12.93 215.506 12.53C215.986 12.11 216.226 11.57 216.226 10.91C216.226 10.27 216.016 9.75 215.596 9.35C215.196 8.93 214.516 8.72 213.556 8.72H204.916L206.386 7.01L207.226 14.51L206.386 22.04ZM240.223 23L239.563 16.7L240.343 14.51L239.563 12.35L240.223 6.02H244.243L243.343 14.51L244.243 23H240.223ZM241.423 14.51C241.043 16.29 240.413 17.85 239.533 19.19C238.653 20.53 237.563 21.57 236.263 22.31C234.983 23.05 233.553 23.42 231.973 23.42C230.313 23.42 228.843 23.05 227.563 22.31C226.283 21.55 225.283 20.5 224.563 19.16C223.843 17.82 223.483 16.27 223.483 14.51C223.483 12.73 223.843 11.18 224.563 9.86C225.283 8.52 226.283 7.48 227.563 6.74C228.843 5.98 230.313 5.6 231.973 5.6C233.553 5.6 234.983 5.97 236.263 6.71C237.563 7.45 238.653 8.49 239.533 9.83C240.433 11.15 241.063 12.71 241.423 14.51ZM227.443 14.51C227.443 15.65 227.673 16.66 228.133 17.54C228.613 18.4 229.263 19.08 230.083 19.58C230.903 20.06 231.843 20.3 232.903 20.3C233.983 20.3 234.983 20.06 235.903 19.58C236.823 19.08 237.633 18.4 238.333 17.54C239.053 16.66 239.623 15.65 240.043 14.51C239.623 13.37 239.053 12.37 238.333 11.51C237.633 10.63 236.823 9.95 235.903 9.47C234.983 8.97 233.983 8.72 232.903 8.72C231.843 8.72 230.903 8.97 230.083 9.47C229.263 9.95 228.613 10.63 228.133 11.51C227.673 12.37 227.443 13.37 227.443 14.51ZM247.996 6.02H251.896V11.93L251.716 12.53V15.95L251.896 17V27.95H247.996V6.02ZM250.396 14.51C250.776 12.71 251.406 11.15 252.286 9.83C253.166 8.49 254.246 7.45 255.526 6.71C256.826 5.97 258.266 5.6 259.846 5.6C261.506 5.6 262.976 5.98 264.256 6.74C265.536 7.48 266.536 8.52 267.256 9.86C267.976 11.18 268.336 12.73 268.336 14.51C268.336 16.27 267.976 17.82 267.256 19.16C266.536 20.5 265.536 21.55 264.256 22.31C262.976 23.05 261.506 23.42 259.846 23.42C258.266 23.42 256.836 23.05 255.556 22.31C254.276 21.57 253.186 20.53 252.286 19.19C251.406 17.85 250.776 16.29 250.396 14.51ZM264.376 14.51C264.376 13.37 264.136 12.37 263.656 11.51C263.196 10.63 262.556 9.95 261.736 9.47C260.916 8.97 259.976 8.72 258.916 8.72C257.856 8.72 256.856 8.97 255.916 9.47C254.996 9.95 254.186 10.63 253.486 11.51C252.786 12.37 252.216 13.37 251.776 14.51C252.216 15.65 252.786 16.66 253.486 17.54C254.186 18.4 254.996 19.08 255.916 19.58C256.856 20.06 257.856 20.3 258.916 20.3C259.976 20.3 260.916 20.06 261.736 19.58C262.556 19.08 263.196 18.4 263.656 17.54C264.136 16.66 264.376 15.65 264.376 14.51ZM280.97 23.42C278.91 23.42 277.1 23.05 275.54 22.31C274 21.55 272.79 20.5 271.91 19.16C271.05 17.82 270.62 16.27 270.62 14.51C270.62 12.73 271.05 11.18 271.91 9.86C272.79 8.52 274 7.48 275.54 6.74C277.1 5.98 278.91 5.6 280.97 5.6C283.03 5.6 284.83 5.98 286.37 6.74C287.93 7.48 289.14 8.52 290 9.86C290.88 11.18 291.32 12.73 291.32 14.51C291.32 16.27 290.88 17.82 290 19.16C289.14 20.5 287.93 21.55 286.37 22.31C284.83 23.05 283.03 23.42 280.97 23.42ZM280.97 20.36C282.29 20.36 283.42 20.12 284.36 19.64C285.32 19.16 286.06 18.49 286.58 17.63C287.1 16.75 287.36 15.71 287.36 14.51C287.36 13.31 287.1 12.28 286.58 11.42C286.06 10.54 285.32 9.86 284.36 9.38C283.42 8.9 282.29 8.66 280.97 8.66C279.67 8.66 278.54 8.9 277.58 9.38C276.62 9.86 275.88 10.54 275.36 11.42C274.84 12.28 274.58 13.31 274.58 14.51C274.58 15.71 274.84 16.75 275.36 17.63C275.88 18.49 276.62 19.16 277.58 19.64C278.54 20.12 279.67 20.36 280.97 20.36ZM294.1 23L294.97 14.51L294.1 6.02H306.4C308.04 6.02 309.32 6.4 310.24 7.16C311.18 7.92 311.65 8.97 311.65 10.31C311.65 11.55 311.18 12.55 310.24 13.31C309.32 14.05 308.03 14.49 306.37 14.63L306.67 13.91C308.63 13.95 310.13 14.35 311.17 15.11C312.21 15.87 312.73 16.94 312.73 18.32C312.73 19.78 312.2 20.93 311.14 21.77C310.1 22.59 308.65 23 306.79 23H294.1ZM297.88 22.04L296.38 20.3H305.8C306.86 20.3 307.62 20.1 308.08 19.7C308.56 19.28 308.8 18.7 308.8 17.96C308.8 17.3 308.53 16.75 307.99 16.31C307.47 15.87 306.59 15.65 305.35 15.65H297.22V13.13H304.78C305.8 13.13 306.54 12.93 307 12.53C307.48 12.11 307.72 11.57 307.72 10.91C307.72 10.27 307.51 9.75 307.09 9.35C306.69 8.93 306.01 8.72 305.05 8.72H296.41L297.88 7.01L298.72 14.51L297.88 22.04ZM326.156 23.24C325.476 23.24 324.896 23 324.416 22.52C323.936 22.04 323.696 21.46 323.696 20.78C323.696 20.08 323.936 19.5 324.416 19.04C324.896 18.56 325.476 18.32 326.156 18.32C326.856 18.32 327.436 18.56 327.896 19.04C328.376 19.5 328.616 20.08 328.616 20.78C328.616 21.46 328.376 22.04 327.896 22.52C327.436 23 326.856 23.24 326.156 23.24ZM326.156 12.2C325.476 12.2 324.896 11.96 324.416 11.48C323.936 11 323.696 10.42 323.696 9.74C323.696 9.04 323.936 8.46 324.416 8C324.896 7.52 325.476 7.28 326.156 7.28C326.856 7.28 327.436 7.52 327.896 8C328.376 8.46 328.616 9.04 328.616 9.74C328.616 10.42 328.376 11 327.896 11.48C327.436 11.96 326.856 12.2 326.156 12.2Z" fill="black"/>
</g>
<defs>
<filter id="filter0_d_68_60" x="0.52002" y="0.5" width="332.096" height="35.45" filterUnits="userSpaceOnUse" color-interpolation-filters="sRGB">
<feFlood flood-opacity="0" result="BackgroundImageFix"/>
<feColorMatrix in="SourceAlpha" type="matrix" values="0 0 0 0 0 0 0 0 0 0 0 0 0 0 0 0 0 0 127 0" result="hardAlpha"/>
<feOffset dy="4"/>
<feGaussianBlur stdDeviation="2"/>
<feComposite in2="hardAlpha" operator="out"/>
<feColorMatrix type="matrix" values="0 0 0 0 0 0 0 0 0 0 0 0 0 0 0 0 0 0 0.25 0"/>
<feBlend mode="normal" in2="BackgroundImageFix" result="effect1_dropShadow_68_60"/>
<feBlend mode="normal" in="SourceGraphic" in2="effect1_dropShadow_68_60" result="shape"/>
</filter>
</defs>
</svg>
