<svg width="166" height="40" viewBox="0 0 166 40" fill="none" xmlns="http://www.w3.org/2000/svg">
<g filter="url(#filter0_d_76_77)">
<path d="M21.96 31.56C18.5467 31.56 15.5467 30.9067 12.96 29.6C10.3733 28.2933 8.36 26.48 6.92 24.16C5.48 21.8133 4.76 19.0933 4.76 16C4.76 12.9067 5.48 10.2 6.92 7.88C8.36 5.53333 10.3733 3.70667 12.96 2.4C15.5467 1.09333 18.5467 0.439998 21.96 0.439998C25.3733 0.439998 28.3733 1.09333 30.96 2.4C33.5467 3.70667 35.56 5.53333 37 7.88C38.44 10.2 39.16 12.9067 39.16 16C39.16 19.0933 38.44 21.8133 37 24.16C35.56 26.48 33.5467 28.2933 30.96 29.6C28.3733 30.9067 25.3733 31.56 21.96 31.56ZM21.96 26.84C24.3867 26.84 26.48 26.4 28.24 25.52C30 24.64 31.36 23.3867 32.32 21.76C33.3067 20.1333 33.8 18.2133 33.8 16C33.8 13.7867 33.3067 11.8667 32.32 10.24C31.36 8.61333 30 7.36 28.24 6.48C26.48 5.6 24.3867 5.16 21.96 5.16C19.56 5.16 17.4667 5.6 15.68 6.48C13.92 7.36 12.5467 8.61333 11.56 10.24C10.6 11.8667 10.12 13.7867 10.12 16C10.12 18.2133 10.6 20.1333 11.56 21.76C12.5467 23.3867 13.92 24.64 15.68 25.52C17.4667 26.4 19.56 26.84 21.96 26.84ZM58.2756 8.36H63.4356V31H58.2756V8.36ZM77.5156 8.36H82.6756V31H77.5156V8.36ZM61.1956 17.52H79.6756V21.52H61.1956V17.52ZM111.318 31L110.438 22.6L111.478 19.68L110.438 16.8L111.318 8.36H116.678L115.478 19.68L116.678 31H111.318ZM112.918 19.68C112.411 22.0533 111.571 24.1333 110.398 25.92C109.224 27.7067 107.771 29.0933 106.038 30.08C104.331 31.0667 102.424 31.56 100.318 31.56C98.1042 31.56 96.1442 31.0667 94.4375 30.08C92.7308 29.0667 91.3975 27.6667 90.4375 25.88C89.4775 24.0933 88.9975 22.0267 88.9975 19.68C88.9975 17.3067 89.4775 15.24 90.4375 13.48C91.3975 11.6933 92.7308 10.3067 94.4375 9.32C96.1442 8.30666 98.1042 7.8 100.318 7.8C102.424 7.8 104.331 8.29333 106.038 9.28C107.771 10.2667 109.224 11.6533 110.398 13.44C111.598 15.2 112.438 17.28 112.918 19.68ZM94.2775 19.68C94.2775 21.2 94.5842 22.5467 95.1975 23.72C95.8375 24.8667 96.7042 25.7733 97.7975 26.44C98.8908 27.08 100.144 27.4 101.558 27.4C102.998 27.4 104.331 27.08 105.558 26.44C106.784 25.7733 107.864 24.8667 108.798 23.72C109.758 22.5467 110.518 21.2 111.078 19.68C110.518 18.16 109.758 16.8267 108.798 15.68C107.864 14.5067 106.784 13.6 105.558 12.96C104.331 12.2933 102.998 11.96 101.558 11.96C100.144 11.96 98.8908 12.2933 97.7975 12.96C96.7042 13.6 95.8375 14.5067 95.1975 15.68C94.5842 16.8267 94.2775 18.16 94.2775 19.68ZM148.682 22.08C148.415 23.9467 147.682 25.6 146.482 27.04C145.282 28.4533 143.749 29.56 141.882 30.36C140.015 31.16 137.935 31.56 135.642 31.56C133.029 31.56 130.722 31.0667 128.722 30.08C126.749 29.0667 125.202 27.6667 124.082 25.88C122.962 24.0933 122.402 22.0267 122.402 19.68C122.402 17.3333 122.962 15.2667 124.082 13.48C125.202 11.6933 126.749 10.3067 128.722 9.32C130.722 8.30666 133.029 7.8 135.642 7.8C137.935 7.8 140.015 8.2 141.882 9C143.749 9.8 145.282 10.92 146.482 12.36C147.682 13.7733 148.415 15.4267 148.682 17.32H143.442C143.069 15.6133 142.175 14.28 140.762 13.32C139.349 12.36 137.642 11.88 135.642 11.88C134.042 11.88 132.642 12.2 131.442 12.84C130.242 13.4533 129.309 14.3467 128.642 15.52C128.002 16.6667 127.682 18.0533 127.682 19.68C127.682 21.28 128.002 22.6667 128.642 23.84C129.309 25.0133 130.242 25.92 131.442 26.56C132.642 27.1733 134.042 27.48 135.642 27.48C137.669 27.48 139.389 26.9867 140.802 26C142.215 25.0133 143.095 23.7067 143.442 22.08H148.682ZM157.747 31.32C156.841 31.32 156.067 31 155.427 30.36C154.787 29.72 154.467 28.9467 154.467 28.04C154.467 27.1067 154.787 26.3333 155.427 25.72C156.067 25.08 156.841 24.76 157.747 24.76C158.681 24.76 159.454 25.08 160.067 25.72C160.707 26.3333 161.027 27.1067 161.027 28.04C161.027 28.9467 160.707 29.72 160.067 30.36C159.454 31 158.681 31.32 157.747 31.32ZM157.747 16.6C156.841 16.6 156.067 16.28 155.427 15.64C154.787 15 154.467 14.2267 154.467 13.32C154.467 12.3867 154.787 11.6133 155.427 11C156.067 10.36 156.841 10.04 157.747 10.04C158.681 10.04 159.454 10.36 160.067 11C160.707 11.6133 161.027 12.3867 161.027 13.32C161.027 14.2267 160.707 15 160.067 15.64C159.454 16.28 158.681 16.6 157.747 16.6Z" fill="black"/>
</g>
<defs>
<filter id="filter0_d_76_77" x="0.759998" y="0.439941" width="164.267" height="39.1201" filterUnits="userSpaceOnUse" color-interpolation-filters="sRGB">
<feFlood flood-opacity="0" result="BackgroundImageFix"/>
<feColorMatrix in="SourceAlpha" type="matrix" values="0 0 0 0 0 0 0 0 0 0 0 0 0 0 0 0 0 0 127 0" result="hardAlpha"/>
<feOffset dy="4"/>
<feGaussianBlur stdDeviation="2"/>
<feComposite in2="hardAlpha" operator="out"/>
<feColorMatrix type="matrix" values="0 0 0 0 0 0 0 0 0 0 0 0 0 0 0 0 0 0 0.25 0"/>
<feBlend mode="normal" in2="BackgroundImageFix" result="effect1_dropShadow_76_77"/>
<feBlend mode="normal" in="SourceGraphic" in2="effect1_dropShadow_76_77" result="shape"/>
</filter>
</defs>
</svg>
