<svg width="36" height="710" viewBox="0 0 36 710" fill="none" xmlns="http://www.w3.org/2000/svg">
<g filter="url(#filter0_d_279_4)">
<path d="M29.92 14.112C29.92 16.104 29.668 17.916 29.164 19.548C28.66 21.156 27.904 22.548 26.896 23.724C25.912 24.9 24.676 25.8 23.188 26.424C21.724 27.048 20.02 27.36 18.076 27.36C16.06 27.36 14.308 27.048 12.82 26.424C11.332 25.776 10.096 24.876 9.112 23.724C8.128 22.548 7.396 21.144 6.916 19.512C6.436 17.88 6.196 16.068 6.196 14.076C6.196 11.436 6.628 9.132 7.492 7.164C8.356 5.196 9.664 3.66 11.416 2.556C13.192 1.452 15.424 0.899999 18.112 0.899999C20.68 0.899999 22.84 1.452 24.592 2.556C26.344 3.636 27.664 5.172 28.552 7.164C29.464 9.132 29.92 11.448 29.92 14.112ZM9.616 14.112C9.616 16.272 9.916 18.132 10.516 19.692C11.116 21.252 12.04 22.452 13.288 23.292C14.56 24.132 16.156 24.552 18.076 24.552C20.02 24.552 21.604 24.132 22.828 23.292C24.076 22.452 25 21.252 25.6 19.692C26.2 18.132 26.5 16.272 26.5 14.112C26.5 10.872 25.828 8.34 24.484 6.516C23.14 4.668 21.016 3.744 18.112 3.744C16.168 3.744 14.56 4.164 13.288 5.004C12.04 5.82 11.116 7.008 10.516 8.568C9.916 10.104 9.616 11.952 9.616 14.112ZM15.628 162H12.388V139.14H4.36V136.296H23.62V139.14H15.628V162ZM22.684 277.308C22.684 279.06 22.132 280.452 21.028 281.484C19.924 282.492 18.448 283.14 16.6 283.428V283.572C18.76 283.86 20.404 284.532 21.532 285.588C22.66 286.644 23.224 288.024 23.224 289.728C23.224 291.24 22.84 292.572 22.072 293.724C21.304 294.852 20.152 295.74 18.616 296.388C17.08 297.036 15.16 297.36 12.856 297.36C11.464 297.36 10.132 297.252 8.86 297.036C7.612 296.844 6.448 296.484 5.368 295.956V293.004C6.112 293.364 6.904 293.676 7.744 293.94C8.608 294.18 9.472 294.372 10.336 294.516C11.2 294.636 12.028 294.696 12.82 294.696C15.124 294.696 16.864 294.264 18.04 293.4C19.24 292.536 19.84 291.312 19.84 289.728C19.84 288.096 19.144 286.908 17.752 286.164C16.36 285.42 14.416 285.048 11.92 285.048H8.248V282.348H11.74C13.444 282.348 14.848 282.156 15.952 281.772C17.08 281.388 17.92 280.848 18.472 280.152C19.048 279.432 19.336 278.592 19.336 277.632C19.336 276.336 18.856 275.34 17.896 274.644C16.936 273.948 15.688 273.6 14.152 273.6C12.544 273.6 11.2 273.804 10.12 274.212C9.064 274.62 8.032 275.148 7.024 275.796L5.476 273.6C6.148 273.096 6.916 272.652 7.78 272.268C8.668 271.86 9.652 271.536 10.732 271.296C11.812 271.056 12.964 270.936 14.188 270.936C16.036 270.936 17.584 271.212 18.832 271.764C20.104 272.316 21.064 273.072 21.712 274.032C22.36 274.968 22.684 276.06 22.684 277.308ZM7.492 432V406.296H10.732V417.168H14.692C17.092 417.168 18.976 417.492 20.344 418.14C21.736 418.788 22.72 419.664 23.296 420.768C23.896 421.872 24.196 423.108 24.196 424.476C24.196 425.988 23.872 427.308 23.224 428.436C22.6 429.564 21.616 430.44 20.272 431.064C18.928 431.688 17.2 432 15.088 432H7.492ZM14.8 429.264C16.864 429.264 18.388 428.868 19.372 428.076C20.356 427.284 20.848 426.084 20.848 424.476C20.848 423.372 20.608 422.496 20.128 421.848C19.672 421.2 18.964 420.732 18.004 420.444C17.044 420.156 15.82 420.012 14.332 420.012H10.732V429.264H14.8ZM28.156 432V406.296H31.396V432H28.156ZM14.836 541.296C16.972 541.296 18.76 541.5 20.2 541.908C21.664 542.316 22.756 542.988 23.476 543.924C24.22 544.86 24.592 546.108 24.592 547.668C24.592 548.676 24.4 549.576 24.016 550.368C23.656 551.136 23.104 551.784 22.36 552.312C21.64 552.816 20.752 553.164 19.696 553.356V553.536C20.776 553.704 21.748 554.016 22.612 554.472C23.5 554.928 24.196 555.576 24.7 556.416C25.204 557.256 25.456 558.348 25.456 559.692C25.456 561.252 25.096 562.584 24.376 563.688C23.656 564.768 22.624 565.596 21.28 566.172C19.96 566.724 18.376 567 16.528 567H7.492V541.296H14.836ZM15.484 552.24C17.692 552.24 19.204 551.892 20.02 551.196C20.836 550.476 21.244 549.42 21.244 548.028C21.244 546.612 20.74 545.604 19.732 545.004C18.748 544.38 17.164 544.068 14.98 544.068H10.732V552.24H15.484ZM10.732 554.94V564.264H15.916C18.196 564.264 19.78 563.82 20.668 562.932C21.556 562.044 22 560.88 22 559.44C22 558.528 21.796 557.736 21.388 557.064C21.004 556.392 20.344 555.876 19.408 555.516C18.496 555.132 17.248 554.94 15.664 554.94H10.732ZM7.492 702V676.296H10.732V687.168H14.692C17.092 687.168 18.976 687.492 20.344 688.14C21.736 688.788 22.72 689.664 23.296 690.768C23.896 691.872 24.196 693.108 24.196 694.476C24.196 695.988 23.872 697.308 23.224 698.436C22.6 699.564 21.616 700.44 20.272 701.064C18.928 701.688 17.2 702 15.088 702H7.492ZM14.8 699.264C16.864 699.264 18.388 698.868 19.372 698.076C20.356 697.284 20.848 696.084 20.848 694.476C20.848 693.372 20.608 692.496 20.128 691.848C19.672 691.2 18.964 690.732 18.004 690.444C17.044 690.156 15.82 690.012 14.332 690.012H10.732V699.264H14.8ZM28.156 702V676.296H31.396V702H28.156Z" fill="#F8E5C4"/>
</g>
<defs>
<filter id="filter0_d_279_4" x="0.360001" y="0.899902" width="35.036" height="709.1" filterUnits="userSpaceOnUse" color-interpolation-filters="sRGB">
<feFlood flood-opacity="0" result="BackgroundImageFix"/>
<feColorMatrix in="SourceAlpha" type="matrix" values="0 0 0 0 0 0 0 0 0 0 0 0 0 0 0 0 0 0 127 0" result="hardAlpha"/>
<feOffset dy="4"/>
<feGaussianBlur stdDeviation="2"/>
<feComposite in2="hardAlpha" operator="out"/>
<feColorMatrix type="matrix" values="0 0 0 0 0 0 0 0 0 0 0 0 0 0 0 0 0 0 0.25 0"/>
<feBlend mode="normal" in2="BackgroundImageFix" result="effect1_dropShadow_279_4"/>
<feBlend mode="normal" in="SourceGraphic" in2="effect1_dropShadow_279_4" result="shape"/>
</filter>
</defs>
</svg>
