<svg width="422" height="47" viewBox="0 0 422 47" fill="none" xmlns="http://www.w3.org/2000/svg">
<g filter="url(#filter0_di_68_15)">
<path d="M4.88 29V0.439998H26.32V29H22.76V3.6H8.48V29H4.88ZM52.2978 18.24C52.2978 20.0267 52.0578 21.6133 51.5778 23C51.1245 24.36 50.4578 25.52 49.5778 26.48C48.7245 27.44 47.6711 28.1733 46.4178 28.68C45.1911 29.16 43.8178 29.4 42.2978 29.4C40.8845 29.4 39.5778 29.16 38.3778 28.68C37.1778 28.1733 36.1378 27.44 35.2578 26.48C34.3778 25.52 33.6845 24.36 33.1778 23C32.6978 21.6133 32.4578 20.0267 32.4578 18.24C32.4578 15.8667 32.8578 13.8667 33.6578 12.24C34.4578 10.5867 35.6045 9.33333 37.0978 8.48C38.5911 7.6 40.3645 7.16 42.4178 7.16C44.3645 7.16 46.0711 7.6 47.5378 8.48C49.0311 9.33333 50.1911 10.5867 51.0178 12.24C51.8711 13.8667 52.2978 15.8667 52.2978 18.24ZM36.0978 18.24C36.0978 19.92 36.3111 21.3867 36.7378 22.64C37.1911 23.8667 37.8845 24.8133 38.8178 25.48C39.7511 26.1467 40.9378 26.48 42.3778 26.48C43.8178 26.48 45.0045 26.1467 45.9378 25.48C46.8711 24.8133 47.5511 23.8667 47.9778 22.64C48.4311 21.3867 48.6578 19.92 48.6578 18.24C48.6578 16.5333 48.4311 15.08 47.9778 13.88C47.5245 12.68 46.8311 11.76 45.8978 11.12C44.9911 10.4533 43.8045 10.12 42.3378 10.12C40.1511 10.12 38.5645 10.84 37.5778 12.28C36.5911 13.72 36.0978 15.7067 36.0978 18.24ZM60.5659 15.36C60.5659 16.6133 60.9126 17.5467 61.6059 18.16C62.3259 18.7467 63.3526 19.04 64.6859 19.04C66.0193 19.04 67.2326 18.84 68.3259 18.44C69.4193 18.0133 70.5393 17.4533 71.6859 16.76V7.56H75.2059V29H71.6859V19.44C70.4859 20.2133 69.2993 20.8267 68.1259 21.28C66.9793 21.7067 65.5926 21.92 63.9659 21.92C61.7793 21.92 60.0726 21.3467 58.8459 20.2C57.6459 19.0533 57.0459 17.52 57.0459 15.6V7.56H60.5659V15.36ZM90.2972 7.16C92.1372 7.16 93.7105 7.56 95.0172 8.36C96.3505 9.16 97.3639 10.2933 98.0572 11.76C98.7772 13.2 99.1372 14.8933 99.1372 16.84V18.96H84.4572C84.5105 21.3867 85.1239 23.24 86.2972 24.52C87.4972 25.7733 89.1639 26.4 91.2972 26.4C92.6572 26.4 93.8572 26.28 94.8972 26.04C95.9639 25.7733 97.0572 25.4 98.1772 24.92V28C97.0839 28.48 96.0039 28.8267 94.9372 29.04C93.8705 29.28 92.6039 29.4 91.1372 29.4C89.1105 29.4 87.3105 28.9867 85.7372 28.16C84.1905 27.3333 82.9772 26.1067 82.0972 24.48C81.2439 22.8267 80.8172 20.8133 80.8172 18.44C80.8172 16.0933 81.2039 14.08 81.9772 12.4C82.7772 10.72 83.8839 9.42667 85.2972 8.52C86.7372 7.61333 88.4039 7.16 90.2972 7.16ZM90.2572 10.04C88.5772 10.04 87.2439 10.5867 86.2572 11.68C85.2972 12.7467 84.7239 14.24 84.5372 16.16H95.4572C95.4572 14.9333 95.2705 13.8667 94.8972 12.96C94.5239 12.0533 93.9505 11.3467 93.1772 10.84C92.4305 10.3067 91.4572 10.04 90.2572 10.04ZM127.595 7.56V29H124.435V15.32C124.435 14.76 124.449 14.1733 124.475 13.56C124.529 12.9467 124.582 12.3467 124.635 11.76H124.515L117.515 29H114.555L107.755 11.76H107.635C107.689 12.3467 107.715 12.9467 107.715 13.56C107.742 14.1733 107.755 14.8 107.755 15.44V29H104.595V7.56H109.275L116.035 24.8L122.915 7.56H127.595ZM131.079 7.56H134.839L139.479 19.76C139.746 20.48 139.986 21.1733 140.199 21.84C140.439 22.5067 140.652 23.16 140.839 23.8C141.026 24.4133 141.172 25.0133 141.279 25.6H141.439C141.599 24.9333 141.852 24.0667 142.199 23C142.546 21.9067 142.906 20.8133 143.279 19.72L147.639 7.56H151.439L142.199 31.96C141.692 33.2933 141.092 34.4533 140.399 35.44C139.732 36.4533 138.906 37.2267 137.919 37.76C136.959 38.32 135.786 38.6 134.399 38.6C133.759 38.6 133.199 38.56 132.719 38.48C132.239 38.4267 131.826 38.36 131.479 38.28V35.48C131.772 35.5333 132.119 35.5867 132.519 35.64C132.946 35.6933 133.386 35.72 133.839 35.72C134.666 35.72 135.372 35.56 135.959 35.24C136.572 34.9467 137.092 34.5067 137.519 33.92C137.946 33.36 138.306 32.6933 138.599 31.92L139.719 29.08L131.079 7.56ZM174.947 20.64C174.947 20.88 174.933 21.2267 174.907 21.68C174.907 22.1067 174.893 22.5733 174.867 23.08C174.84 23.56 174.813 24.0267 174.787 24.48C174.76 24.9067 174.733 25.2533 174.707 25.52L186.187 7.56H190.507V29H187.227V16.36C187.227 15.9333 187.227 15.3733 187.227 14.68C187.253 13.9867 187.28 13.3067 187.307 12.64C187.333 11.9467 187.36 11.4267 187.387 11.08L175.987 29H171.627V7.56H174.947V20.64ZM220.33 7.56V29H217.17V15.32C217.17 14.76 217.183 14.1733 217.21 13.56C217.263 12.9467 217.316 12.3467 217.37 11.76H217.25L210.25 29H207.29L200.49 11.76H200.37C200.423 12.3467 200.45 12.9467 200.45 13.56C200.476 14.1733 200.49 14.8 200.49 15.44V29H197.33V7.56H202.01L208.77 24.8L215.65 7.56H220.33ZM235.453 7.16C237.293 7.16 238.867 7.56 240.173 8.36C241.507 9.16 242.52 10.2933 243.213 11.76C243.933 13.2 244.293 14.8933 244.293 16.84V18.96H229.613C229.667 21.3867 230.28 23.24 231.453 24.52C232.653 25.7733 234.32 26.4 236.453 26.4C237.813 26.4 239.013 26.28 240.053 26.04C241.12 25.7733 242.213 25.4 243.333 24.92V28C242.24 28.48 241.16 28.8267 240.093 29.04C239.027 29.28 237.76 29.4 236.293 29.4C234.267 29.4 232.467 28.9867 230.893 28.16C229.347 27.3333 228.133 26.1067 227.253 24.48C226.4 22.8267 225.973 20.8133 225.973 18.44C225.973 16.0933 226.36 14.08 227.133 12.4C227.933 10.72 229.04 9.42667 230.453 8.52C231.893 7.61333 233.56 7.16 235.453 7.16ZM235.413 10.04C233.733 10.04 232.4 10.5867 231.413 11.68C230.453 12.7467 229.88 14.24 229.693 16.16H240.613C240.613 14.9333 240.427 13.8667 240.053 12.96C239.68 12.0533 239.107 11.3467 238.333 10.84C237.587 10.3067 236.613 10.04 235.413 10.04ZM253.272 7.56V16.48H264.912V7.56H268.432V29H264.912V19.44H253.272V29H249.752V7.56H253.272ZM278.74 7.56V16.48H290.38V7.56H293.9V29H290.38V19.44H278.74V29H275.22V7.56H278.74ZM319.329 18.24C319.329 20.0267 319.089 21.6133 318.609 23C318.156 24.36 317.489 25.52 316.609 26.48C315.756 27.44 314.702 28.1733 313.449 28.68C312.222 29.16 310.849 29.4 309.329 29.4C307.916 29.4 306.609 29.16 305.409 28.68C304.209 28.1733 303.169 27.44 302.289 26.48C301.409 25.52 300.716 24.36 300.209 23C299.729 21.6133 299.489 20.0267 299.489 18.24C299.489 15.8667 299.889 13.8667 300.689 12.24C301.489 10.5867 302.636 9.33333 304.129 8.48C305.622 7.6 307.396 7.16 309.449 7.16C311.396 7.16 313.102 7.6 314.569 8.48C316.062 9.33333 317.222 10.5867 318.049 12.24C318.902 13.8667 319.329 15.8667 319.329 18.24ZM303.129 18.24C303.129 19.92 303.342 21.3867 303.769 22.64C304.222 23.8667 304.916 24.8133 305.849 25.48C306.782 26.1467 307.969 26.48 309.409 26.48C310.849 26.48 312.036 26.1467 312.969 25.48C313.902 24.8133 314.582 23.8667 315.009 22.64C315.462 21.3867 315.689 19.92 315.689 18.24C315.689 16.5333 315.462 15.08 315.009 13.88C314.556 12.68 313.862 11.76 312.929 11.12C312.022 10.4533 310.836 10.12 309.369 10.12C307.182 10.12 305.596 10.84 304.609 12.28C303.622 13.72 303.129 15.7067 303.129 18.24ZM364.705 7.56V29H361.545V15.32C361.545 14.76 361.558 14.1733 361.585 13.56C361.638 12.9467 361.691 12.3467 361.745 11.76H361.625L354.625 29H351.665L344.865 11.76H344.745C344.798 12.3467 344.825 12.9467 344.825 13.56C344.851 14.1733 344.865 14.8 344.865 15.44V29H341.705V7.56H346.385L353.145 24.8L360.025 7.56H364.705ZM371.548 29V7.56H375.068V16.36H380.628C382.495 16.36 384.028 16.5867 385.228 17.04C386.428 17.4933 387.322 18.1733 387.908 19.08C388.495 19.96 388.788 21.08 388.788 22.44C388.788 23.7733 388.495 24.9333 387.908 25.92C387.348 26.9067 386.455 27.6667 385.228 28.2C384.028 28.7333 382.442 29 380.468 29H371.548ZM380.148 26.16C381.668 26.16 382.908 25.9067 383.868 25.4C384.828 24.8667 385.308 23.9467 385.308 22.64C385.308 21.3333 384.868 20.4533 383.988 20C383.108 19.52 381.842 19.28 380.188 19.28H375.068V26.16H380.148ZM392.348 29V7.56H395.868V29H392.348ZM417.041 10.76C416.881 11.4 416.708 12 416.521 12.56C416.335 13.0933 416.095 13.6133 415.801 14.12C415.535 14.6 415.188 15.0533 414.761 15.48C414.361 15.9067 413.855 16.32 413.241 16.72C412.335 17.3067 411.668 17.8133 411.241 18.24C410.815 18.64 410.521 19 410.361 19.32C410.201 19.64 410.121 19.9467 410.121 20.24C410.148 20.5067 410.135 20.8 410.081 21.12C409.895 21.7867 409.401 22.12 408.601 22.12C408.095 22.12 407.761 21.9467 407.601 21.6C407.468 21.2533 407.401 20.8667 407.401 20.44C407.401 19.6933 407.641 18.8533 408.121 17.92C408.628 16.96 409.468 16.1467 410.641 15.48C411.095 15.24 411.481 15.0267 411.801 14.84C412.121 14.6267 412.388 14.4 412.601 14.16C412.841 13.8933 413.055 13.6133 413.241 13.32C413.428 13 413.601 12.6133 413.761 12.16C413.975 11.6533 414.121 11.32 414.201 11.16C414.281 10.9733 414.321 10.84 414.321 10.76C414.321 10.2 414.175 9.70667 413.881 9.28C413.615 8.82666 413.281 8.45333 412.881 8.16C412.481 7.84 412.055 7.61333 411.601 7.48C411.148 7.32 410.748 7.24 410.401 7.24C409.948 7.24 409.521 7.29333 409.121 7.4C408.748 7.48 408.375 7.65333 408.001 7.92C407.628 8.16 407.255 8.52 406.881 9C406.508 9.48 406.121 10.12 405.721 10.92C405.481 11.2133 405.148 11.36 404.721 11.36C403.815 11.36 403.335 10.8933 403.281 9.96C403.761 8.70667 404.321 7.73333 404.961 7.04C405.628 6.32 406.295 5.78667 406.961 5.44C407.655 5.09333 408.308 4.88 408.921 4.8C409.561 4.72 410.081 4.68 410.481 4.68C411.708 4.68 412.708 4.85333 413.481 5.2C414.255 5.54667 414.868 6 415.321 6.56C415.801 7.12 416.161 7.77333 416.401 8.52C416.641 9.24 416.855 9.98667 417.041 10.76ZM410.401 28.2C410.401 28.6267 410.201 28.96 409.801 29.2C409.428 29.44 409.081 29.56 408.761 29.56C408.201 29.56 407.761 29.4933 407.441 29.36C407.121 29.2267 406.868 29.0667 406.681 28.88C406.521 28.6667 406.415 28.4533 406.361 28.24C406.308 28 406.281 27.7733 406.281 27.56C406.281 27.08 406.455 26.5867 406.801 26.08C407.148 25.5733 407.601 25.32 408.161 25.32C408.348 25.32 408.561 25.3467 408.801 25.4C409.068 25.4267 409.321 25.5333 409.561 25.72C409.801 25.9067 410.001 26.2 410.161 26.6C410.321 26.9733 410.401 27.5067 410.401 28.2Z" fill="#4C6212"/>
</g>
<defs>
<filter id="filter0_di_68_15" x="0.880005" y="0.440002" width="420.161" height="46.16" filterUnits="userSpaceOnUse" color-interpolation-filters="sRGB">
<feFlood flood-opacity="0" result="BackgroundImageFix"/>
<feColorMatrix in="SourceAlpha" type="matrix" values="0 0 0 0 0 0 0 0 0 0 0 0 0 0 0 0 0 0 127 0" result="hardAlpha"/>
<feOffset dy="4"/>
<feGaussianBlur stdDeviation="2"/>
<feComposite in2="hardAlpha" operator="out"/>
<feColorMatrix type="matrix" values="0 0 0 0 0 0 0 0 0 0 0 0 0 0 0 0 0 0 0.25 0"/>
<feBlend mode="normal" in2="BackgroundImageFix" result="effect1_dropShadow_68_15"/>
<feBlend mode="normal" in="SourceGraphic" in2="effect1_dropShadow_68_15" result="shape"/>
<feColorMatrix in="SourceAlpha" type="matrix" values="0 0 0 0 0 0 0 0 0 0 0 0 0 0 0 0 0 0 127 0" result="hardAlpha"/>
<feOffset dy="4"/>
<feGaussianBlur stdDeviation="2"/>
<feComposite in2="hardAlpha" operator="arithmetic" k2="-1" k3="1"/>
<feColorMatrix type="matrix" values="0 0 0 0 0 0 0 0 0 0 0 0 0 0 0 0 0 0 0.25 0"/>
<feBlend mode="normal" in2="shape" result="effect2_innerShadow_68_15"/>
</filter>
</defs>
</svg>
